<svg width="7" height="8" viewBox="0 0 7 8" fill="none" xmlns="http://www.w3.org/2000/svg">
<path d="M3.78335 7.28535C3.22365 7.28796 2.6761 7.12215 2.21186 6.80947C1.74763 6.49679 1.38819 6.05169 1.18025 5.53204C0.972313 5.01239 0.925493 4.4422 1.04588 3.89558C1.16626 3.34897 1.44828 2.8512 1.85529 2.46698C1.6649 2.11363 1.37867 1.82117 1.02949 1.62323C0.770975 1.50474 0.641719 1.34677 0.670443 1.16006C0.670443 1.05953 0.73148 0.876417 1.02949 0.801018C1.83734 0.531735 4.49067 0.883598 5.93403 2.71831C6.27143 3.12654 6.48565 3.62238 6.55166 4.14786C6.61768 4.67334 6.53275 5.20676 6.30681 5.68575C6.08086 6.16475 5.72324 6.56954 5.27575 6.8528C4.82825 7.13606 4.30937 7.28609 3.77976 7.28535H3.78335ZM1.53215 1.26778C1.96451 1.57196 2.28892 2.00577 2.45848 2.50648L2.48002 2.65728L2.35436 2.79012C2.01362 3.07182 1.76416 3.44832 1.63758 3.87192C1.511 4.29551 1.51299 4.74715 1.64331 5.16961C1.77363 5.59207 2.0264 5.96635 2.36962 6.24503C2.71283 6.52371 3.13103 6.69425 3.57125 6.73505C4.01147 6.77585 4.45389 6.68507 4.84248 6.47421C5.23106 6.26335 5.54831 5.9419 5.75405 5.55058C5.95978 5.15927 6.04474 4.71569 5.99817 4.27604C5.95159 3.8364 5.77557 3.42047 5.4924 3.08095C4.35782 1.62682 2.42258 1.23905 1.53215 1.26778Z" fill="white"/>
<path d="M1.13003 7.02638L1.48908 6.59194C1.36434 6.49652 1.25001 6.38821 1.14799 6.2688C0.261148 5.19885 0.365271 3.60469 1.4424 2.4773L1.23775 2.2511C1.17733 2.18409 1.10563 2.12819 1.02591 2.08594C-0.209199 3.41799 -0.352817 5.35324 0.724315 6.62784C0.845048 6.77469 0.981053 6.90829 1.13003 7.02638Z" fill="white"/>
</svg>
