<svg width="23" height="30" viewBox="0 0 23 30" fill="none" xmlns="http://www.w3.org/2000/svg">
<path fill-rule="evenodd" clip-rule="evenodd" d="M22 30C21.4477 30 21 29.5523 21 29L21 1C21 0.447716 21.4477 0 22 0C22.5523 0 23 0.447716 23 1L23 29C23 29.5523 22.5523 30 22 30ZM0 29C0 29.5523 0.447716 30 1 30C1.55229 30 2 29.5523 2 29L2 9C2 8.44772 1.55228 8 1 8C0.447715 8 0 8.44772 0 9V29ZM7 29C7 29.5523 7.44772 30 8 30C8.55229 30 9 29.5523 9 29L9 13C9 12.4477 8.55229 12 8 12C7.44772 12 7 12.4477 7 13L7 29ZM14 29C14 29.5523 14.4477 30 15 30C15.5523 30 16 29.5523 16 29V19C16 18.4477 15.5523 18 15 18C14.4477 18 14 18.4477 14 19V29Z" fill="white"/>
</svg>
