<svg width="13" height="7" viewBox="0 0 13 7" fill="none" xmlns="http://www.w3.org/2000/svg">
<path d="M12.3052 4.56151L10.7793 3.08584L10.3197 1.147L7.44732 0.353516L6.37019 1.58863L4.74372 0.827454L1.46924 1.93331L1.64876 5.2796L0.625488 6.45726L1.04557 6.81631L3.7384 3.76084L6.20503 4.44303L7.73815 3.7788L9.50824 5.54529L9.96063 6.73014L10.4848 6.52548L9.99654 5.28319L7.84227 3.10738L6.16195 3.84701L5.31819 3.61364L7.63044 0.989024L9.83856 1.5994L10.2694 3.37308L11.7523 4.80925L11.8456 6.51471L12.4057 6.48599L12.3052 4.56151ZM3.54811 3.12534L2.18015 4.66204L2.06166 2.32826L4.71141 1.43065L5.96806 2.02666L4.715 3.44488L3.54811 3.12534Z" fill="white"/>
</svg>
